<?xml version="1.0" encoding="UTF-8"?>
<svg width="700pt" height="700pt" version="1.1" viewBox="0 0 700 700" xmlns="http://www.w3.org/2000/svg" xmlns:xlink="http://www.w3.org/1999/xlink">
 
 <g>
  <path fill="#5A5A5A" d="m588.35 457.27-53.988-234.5c-3.1562-13.844-10.949-26.191-22.094-34.992-11.141-8.8047-24.957-13.527-39.156-13.395h-13.125v-38.148c0-39.297-20.965-75.605-54.996-95.254-34.027-19.645-75.957-19.645-109.98 0-34.031 19.648-54.996 55.957-54.996 95.254v38.148h-13.473c-14.199-0.13281-28.02 4.5898-39.16 13.395-11.141 8.8008-18.938 21.148-22.09 34.992l-53.641 234.5c-4.3125 18.613 0.13672 38.18 12.082 53.09 11.945 14.914 30.062 23.531 49.168 23.387h354.64c19.105 0.14453 37.223-8.4727 49.168-23.387 11.945-14.91 16.395-34.477 12.082-53.09zm-330.84-321.04c0-33.043 17.629-63.574 46.246-80.098 28.613-16.52 63.871-16.52 92.484 0 28.617 16.523 46.246 47.055 46.246 80.098v38.148h-184.98zm-11.637 380.01 22.398-103.16h163.45l22.398 103.16z"/>
  <use x="70" y="691.25" xlink:href="#g"/>
  <use x="102.109375" y="691.25" xlink:href="#b"/>
  <use x="123.683594" y="691.25" xlink:href="#a"/>
  <use x="153.355469" y="691.25" xlink:href="#f"/>
  <use x="182.878906" y="691.25" xlink:href="#e"/>
  <use x="203.792969" y="691.25" xlink:href="#a"/>
  <use x="233.464844" y="691.25" xlink:href="#i"/>
  <use x="280.011719" y="691.25" xlink:href="#h"/>
  <use x="311.328125" y="691.25" xlink:href="#d"/>
  <use x="355.078125" y="691.25" xlink:href="#g"/>
  <use x="387.1875" y="691.25" xlink:href="#c"/>
  <use x="417.246094" y="691.25" xlink:href="#m"/>
  <use x="432.242188" y="691.25" xlink:href="#c"/>
  <use x="462.296875" y="691.25" xlink:href="#l"/>
  <use x="493.445312" y="691.25" xlink:href="#b"/>
  <use x="515.019531" y="691.25" xlink:href="#k"/>
  <use x="540.953125" y="691.25" xlink:href="#b"/>
  <use x="562.53125" y="691.25" xlink:href="#a"/>
  <use x="592.203125" y="691.25" xlink:href="#f"/>
  <use x="621.722656" y="691.25" xlink:href="#e"/>
  <use x="642.636719" y="691.25" xlink:href="#d"/>
  <use x="671.15625" y="691.25" xlink:href="#j"/>
 </g>
</svg>
