<?xml version="1.0" encoding="UTF-8"?>
<svg width="700pt" height="700pt" version="1.1" viewBox="0 0 700 700" xmlns="http://www.w3.org/2000/svg" xmlns:xlink="http://www.w3.org/1999/xlink">
 <g>
  <path fill="#5A5A5A" d="m607.34 111.84c-8.0391-10.746-20.695-17.051-34.117-16.996h-364.16l-0.75781-3.0352c-3.8359-15.414-12.723-29.105-25.246-38.883-12.52-9.7773-27.953-15.074-43.84-15.059h-40.98c-7.8633 0-14.238 6.3789-14.238 14.246 0 7.8633 6.375 14.246 14.238 14.246h40.98c9.5312-0.015625 18.789 3.168 26.305 9.0273 7.5156 5.8672 12.852 14.078 15.156 23.324l63.871 255.55h0.003907c3.8359 15.418 12.719 29.105 25.242 38.883 12.523 9.7773 27.961 15.078 43.844 15.059h211.89c7.8672 0 14.246-6.3789 14.246-14.246 0-7.8633-6.375-14.246-14.246-14.246h-211.89c-9.5312 0.015625-18.793-3.168-26.309-9.0273-7.5117-5.8672-12.848-14.078-15.152-23.324l-6.1562-24.617h245.02c15.465-0.050781 30.492-5.1094 42.84-14.418 12.348-9.3086 21.344-22.367 25.652-37.215l34.785-121.79c3.7383-12.891 1.1523-26.785-6.9688-37.473z"/>
  <path fill="#5A5A5A" d="m568.25 479.41c0 23.598-19.129 42.73-42.73 42.73-23.598 0-42.73-19.133-42.73-42.73s19.133-42.73 42.73-42.73c23.602 0 42.73 19.133 42.73 42.73"/>
  <path fill="#5A5A5A" d="m311.88 479.41c0 23.598-19.129 42.73-42.73 42.73-23.598 0-42.73-19.133-42.73-42.73s19.133-42.73 42.73-42.73c23.602 0 42.73 19.133 42.73 42.73"/>
  <use x="70" y="644" xlink:href="#s"/>
  <use x="90.550781" y="644" xlink:href="#b"/>
  <use x="104.359375" y="644" xlink:href="#a"/>
  <use x="123.347656" y="644" xlink:href="#i"/>
  <use x="142.242188" y="644" xlink:href="#d"/>
  <use x="155.628906" y="644" xlink:href="#a"/>
  <use x="174.617188" y="644" xlink:href="#e"/>
  <use x="204.410156" y="644" xlink:href="#h"/>
  <use x="224.453125" y="644" xlink:href="#g"/>
  <use x="252.453125" y="644" xlink:href="#f"/>
  <use x="272.492188" y="644" xlink:href="#a"/>
  <use x="291.484375" y="644" xlink:href="#e"/>
  <use x="311.527344" y="644" xlink:href="#b"/>
  <use x="325.335938" y="644" xlink:href="#c"/>
  <use x="70" y="672" xlink:href="#r"/>
  <use x="82.183594" y="672" xlink:href="#b"/>
  <use x="95.992188" y="672" xlink:href="#c"/>
  <use x="115.226562" y="672" xlink:href="#q"/>
  <use x="154.152344" y="672" xlink:href="#d"/>
  <use x="167.535156" y="672" xlink:href="#p"/>
  <use x="187.46875" y="672" xlink:href="#a"/>
  <use x="216.207031" y="672" xlink:href="#o"/>
  <use x="239.640625" y="672" xlink:href="#c"/>
  <use x="258.878906" y="672" xlink:href="#n"/>
  <use x="278.8125" y="672" xlink:href="#m"/>
  <use x="308.492188" y="672" xlink:href="#l"/>
  <use x="329.015625" y="672" xlink:href="#b"/>
  <use x="342.820312" y="672" xlink:href="#c"/>
  <use x="362.058594" y="672" xlink:href="#k"/>
  <use x="371.65625" y="672" xlink:href="#a"/>
  <use x="390.648438" y="672" xlink:href="#j"/>
  <use x="407.242188" y="672" xlink:href="#d"/>
 </g>
</svg>
