<?xml version="1.0" encoding="UTF-8"?>
<svg width="700pt" height="700pt" version="1.1" viewBox="0 0 700 700" xmlns="http://www.w3.org/2000/svg" xmlns:xlink="http://www.w3.org/1999/xlink">
 
 <g>
  <path fill="#FFFFFF" d="m608.45 494.21-102-102c48.77-63.879 61.574-148.22 33.969-223.7-27.609-75.473-91.816-131.64-170.29-148.97-78.473-17.332-160.37 6.5703-217.19 63.398-56.82 56.824-80.73 138.72-63.398 217.19 17.332 78.473 73.496 142.68 148.97 170.29 75.473 27.609 159.82 14.801 223.7-33.969l102 102c8.0781 6.9219 19.109 9.2734 29.309 6.2617 10.199-3.0195 18.18-11 21.195-21.195 3.0117-10.199 0.66016-21.234-6.2617-29.309zm-288.89-72.027c-45.777 0-89.68-18.188-122.05-50.555-32.371-32.371-50.555-76.273-50.555-122.05 0-45.781 18.188-89.68 50.555-122.05 32.371-32.371 76.273-50.555 122.05-50.555 45.781 0 89.68 18.188 122.05 50.555 32.371 32.371 50.555 76.273 50.555 122.05 0 45.781-18.188 89.68-50.555 122.05-32.371 32.371-76.27 50.555-122.05 50.555z"/>
  <use x="70" y="644" xlink:href="#w"/>
  <use x="90.550781" y="644" xlink:href="#b"/>
  <use x="104.359375" y="644" xlink:href="#a"/>
  <use x="123.347656" y="644" xlink:href="#f"/>
  <use x="142.242188" y="644" xlink:href="#d"/>
  <use x="155.628906" y="644" xlink:href="#a"/>
  <use x="174.617188" y="644" xlink:href="#l"/>
  <use x="204.410156" y="644" xlink:href="#k"/>
  <use x="224.453125" y="644" xlink:href="#c"/>
  <use x="252.453125" y="644" xlink:href="#j"/>
  <use x="269.117188" y="644" xlink:href="#c"/>
  <use x="287.367188" y="644" xlink:href="#v"/>
  <use x="296.96875" y="644" xlink:href="#u"/>
  <use x="315.21875" y="644" xlink:href="#t"/>
  <use x="324.816406" y="644" xlink:href="#f"/>
  <use x="353.460938" y="644" xlink:href="#i"/>
  <use x="382.632812" y="644" xlink:href="#h"/>
  <use x="402.570312" y="644" xlink:href="#b"/>
  <use x="416.375" y="644" xlink:href="#s"/>
  <use x="436.421875" y="644" xlink:href="#g"/>
  <use x="456.351562" y="644" xlink:href="#c"/>
  <use x="70" y="672" xlink:href="#r"/>
  <use x="82.183594" y="672" xlink:href="#b"/>
  <use x="95.992188" y="672" xlink:href="#e"/>
  <use x="115.226562" y="672" xlink:href="#i"/>
  <use x="154.152344" y="672" xlink:href="#d"/>
  <use x="167.535156" y="672" xlink:href="#g"/>
  <use x="187.46875" y="672" xlink:href="#a"/>
  <use x="216.207031" y="672" xlink:href="#q"/>
  <use x="239.640625" y="672" xlink:href="#e"/>
  <use x="258.878906" y="672" xlink:href="#h"/>
  <use x="278.8125" y="672" xlink:href="#p"/>
  <use x="308.492188" y="672" xlink:href="#o"/>
  <use x="329.015625" y="672" xlink:href="#b"/>
  <use x="342.820312" y="672" xlink:href="#e"/>
  <use x="362.058594" y="672" xlink:href="#n"/>
  <use x="371.65625" y="672" xlink:href="#a"/>
  <use x="390.648438" y="672" xlink:href="#m"/>
  <use x="407.242188" y="672" xlink:href="#d"/>
 </g>
</svg>
