<?xml version="1.0" encoding="UTF-8"?>
<svg width="700pt" height="700pt" version="1.1" viewBox="0 0 700 700" xmlns="http://www.w3.org/2000/svg" xmlns:xlink="http://www.w3.org/1999/xlink">
  <g>
  <path fill="#5A5A5A" d="m564.29 92.727c-27.605-27.605-64.312-42.809-103.35-42.809s-75.742 15.203-103.34 42.809l-7.5898 7.6016-7.5898-7.6016c-27.617-27.605-64.312-42.809-103.36-42.809-39.035 0-75.73 15.203-103.34 42.809-27.605 27.594-42.809 64.301-42.809 103.34s15.203 75.742 42.809 103.36l208.11 208.1c1.707 1.707 3.9492 2.5586 6.1914 2.5586s4.4727-0.85156 6.1797-2.5586l194.32-194.31 13.758-13.793c56.977-56.996 56.977-149.71 0.003906-206.69z"/>
  <use x="70" y="576.40625" xlink:href="#x"/>
  <use x="73.914062" y="576.40625" xlink:href="#k"/>
  <use x="79.382812" y="576.40625" xlink:href="#n"/>
  <use x="84.824219" y="576.40625" xlink:href="#b"/>
  <use x="88.71875" y="576.40625" xlink:href="#h"/>
  <use x="92.613281" y="576.40625" xlink:href="#a"/>
  <use x="96.300781" y="576.40625" xlink:href="#c"/>
  <use x="102" y="576.40625" xlink:href="#c"/>
  <use x="107.699219" y="576.40625" xlink:href="#a"/>
  <use x="111.390625" y="576.40625" xlink:href="#g"/>
  <use x="117.207031" y="576.40625" xlink:href="#f"/>
  <use x="121.785156" y="576.40625" xlink:href="#b"/>
  <use x="125.679688" y="576.40625" xlink:href="#e"/>
  <use x="130.277344" y="576.40625" xlink:href="#w"/>
  <use x="134.511719" y="576.40625" xlink:href="#b"/>
  <use x="138.40625" y="576.40625" xlink:href="#v"/>
  <use x="140.28125" y="576.40625" xlink:href="#u"/>
  <use x="142.152344" y="576.40625" xlink:href="#a"/>
  <use x="145.84375" y="576.40625" xlink:href="#g"/>
  <use x="149.757812" y="576.40625" xlink:href="#k"/>
  <use x="155.226562" y="576.40625" xlink:href="#m"/>
  <use x="159.234375" y="576.40625" xlink:href="#a"/>
  <use x="162.925781" y="576.40625" xlink:href="#c"/>
  <use x="168.625" y="576.40625" xlink:href="#b"/>
  <use x="172.519531" y="576.40625" xlink:href="#l"/>
  <use x="176.410156" y="576.40625" xlink:href="#t"/>
  <use x="180.324219" y="576.40625" xlink:href="#s"/>
  <use x="183.960938" y="576.40625" xlink:href="#a"/>
  <use x="187.652344" y="576.40625" xlink:href="#r"/>
  <use x="70" y="581.875" xlink:href="#q"/>
  <use x="72.378906" y="581.875" xlink:href="#e"/>
  <use x="75.078125" y="581.875" xlink:href="#d"/>
  <use x="78.832031" y="581.875" xlink:href="#c"/>
  <use x="86.4375" y="581.875" xlink:href="#j"/>
  <use x="89.050781" y="581.875" xlink:href="#h"/>
  <use x="92.941406" y="581.875" xlink:href="#i"/>
  <use x="98.554688" y="581.875" xlink:href="#f"/>
  <use x="103.132812" y="581.875" xlink:href="#d"/>
  <use x="106.890625" y="581.875" xlink:href="#b"/>
  <use x="110.785156" y="581.875" xlink:href="#l"/>
  <use x="116.582031" y="581.875" xlink:href="#m"/>
  <use x="120.589844" y="581.875" xlink:href="#e"/>
  <use x="123.285156" y="581.875" xlink:href="#d"/>
  <use x="127.042969" y="581.875" xlink:href="#p"/>
  <use x="128.917969" y="581.875" xlink:href="#i"/>
  <use x="132.625" y="581.875" xlink:href="#o"/>
  <use x="135.867188" y="581.875" xlink:href="#j"/>
 </g>
</svg>
