<?xml version="1.0" encoding="utf-8"?>
<svg viewBox="0 0 1080 1080" xmlns="http://www.w3.org/2000/svg">
  <g transform="matrix(0.1, 0, 0, -0.1, 0, 1080)" fill="#000000" stroke="none">
    <path d="M0 5400 l0 -5400 5400 0 5400 0 0 5400 0 5400 -5400 0 -5400 0 0 -5400z m5647 2014 c21 -16 48 -50 61 -74 22 -43 22 -51 21 -380 -1 -360 -3 -377 -53 -430 -61 -66 -55 -65 -456 -68 l-365 -3 -121 -120 c-82 -80 -128 -119 -143 -119 -60 0 -81 43 -81 166 0 77 -2 83 -22 89 -41 13 -90 57 -109 99 -17 37 -19 71 -19 384 0 372 1 381 56 436 57 57 42 56 641 53 l551 -2 39 -31z m694 -657 c29 -16 54 -40 74 -72 l30 -48 0 -346 c0 -338 0 -347 -22 -388 -25 -45 -56 -73 -103 -93 l-30 -12 0 -90 c0 -119 -20 -158 -82 -158 -14 0 -66 44 -142 120 l-121 119 -365 3 -365 3 -47 27 c-35 21 -53 41 -72 81 -26 52 -26 57 -24 238 l3 184 275 5 275 5 56 28 c67 32 132 99 162 165 16 35 22 73 25 150 l4 102 213 0 c203 0 214 -1 256 -23z m-1271 -1525 c0 -13 -30 -255 -35 -289 l-6 -33 52 32 c70 44 158 51 208 16 46 -31 72 -85 73 -150 1 -29 -9 -140 -22 -245 l-23 -193 -93 0 c-69 0 -94 3 -94 13 0 6 9 86 20 177 24 203 25 253 4 271 -24 20 -82 -16 -118 -73 -25 -42 -31 -67 -49 -218 l-21 -170 -93 0 c-82 0 -93 2 -93 18 0 9 23 202 50 427 27 226 50 413 50 418 0 4 43 7 95 7 52 0 95 -4 95 -8z m-1027 -41 c72 -35 102 -86 102 -170 0 -84 -32 -143 -100 -185 -45 -29 -46 -30 -23 -39 55 -20 98 -83 98 -145 0 -107 -56 -194 -158 -244 l-66 -33 -215 -3 -214 -3 6 38 c3 21 27 213 53 426 l47 388 211 -3 c199 -3 214 -4 259 -27z m3297 22 c0 -46 -55 -424 -68 -473 l-19 -65 -61 -3 c-59 -3 -62 -2 -68 24 -8 31 0 132 26 348 11 88 20 163 20 168 0 4 38 8 85 8 47 0 85 -3 85 -7z m-414 -120 c-4 -32 -10 -73 -13 -90 l-5 -33 66 0 c65 0 66 0 66 -27 0 -16 -3 -45 -6 -65 l-7 -38 -67 0 -67 0 -18 -155 c-10 -85 -15 -161 -11 -170 4 -12 14 -14 43 -9 37 6 39 5 61 -42 l24 -48 -22 -18 c-43 -34 -157 -50 -213 -29 -37 14 -76 61 -83 99 -5 28 14 233 33 340 5 31 4 32 -31 32 l-36 0 0 55 0 55 39 6 c52 8 54 10 81 84 38 107 41 110 111 110 l61 0 -6 -57z m-2221 -127 c23 -7 40 -18 39 -27 0 -8 -16 -139 -34 -291 l-34 -278 -67 0 c-75 0 -99 14 -99 58 l0 26 -32 -31 c-47 -44 -90 -63 -146 -63 -153 0 -218 199 -129 394 45 97 138 177 243 209 59 19 203 20 259 3z m1156 -14 c195 -101 157 -436 -62 -557 -48 -27 -63 -30 -140 -30 -78 0 -90 3 -135 30 -72 45 -107 117 -106 222 1 133 56 243 156 311 60 40 94 50 172 51 49 1 73 -5 115 -27z m608 2 c195 -97 158 -440 -60 -559 -40 -21 -70 -29 -126 -33 -64 -4 -79 -1 -129 23 -158 77 -175 328 -33 489 89 102 236 135 348 80z m754 -405 c28 -13 57 -58 57 -89 0 -31 -29 -76 -57 -89 -75 -34 -153 11 -153 89 0 78 78 123 153 89z" style="fill: rgb(70, 23, 143); fill-rule: evenodd;"/>
    <path d="M4947 7258 c-21 -6 -53 -25 -71 -43 -31 -31 -52 -87 -40 -106 3 -5 32 -9 64 -9 54 0 60 2 80 30 17 23 29 30 55 30 51 0 78 -33 72 -89 -4 -39 -13 -51 -76 -110 -60 -56 -71 -71 -71 -99 l0 -33 66 3 c65 3 67 4 78 35 6 17 31 46 55 65 69 52 85 79 83 141 -1 30 -6 67 -12 83 -34 90 -158 135 -283 102z" style="fill: rgb(70, 23, 143); fill-rule: evenodd;"/>
    <path d="M4967 6754 c-12 -12 -8 -79 5 -92 16 -16 90 -15 112 1 13 9 17 23 14 52 l-3 40 -60 3 c-34 2 -64 0 -68 -4z" style="fill: rgb(70, 23, 143); fill-rule: evenodd;"/>
    <path d="M3747 5033 c-4 -27 -9 -76 -13 -110 l-7 -63 50 0 c107 0 144 21 163 91 16 57 -1 104 -42 118 -17 6 -57 11 -88 11 l-57 0 -6 -47z" style="fill: rgb(70, 23, 143); fill-rule: evenodd;"/>
    <path d="M3710 4719 c-1 -8 -7 -58 -14 -111 l-12 -98 68 0 c121 0 168 35 168 126 0 74 -19 88 -126 93 -66 2 -84 0 -84 -10z" style="fill: rgb(70, 23, 143); fill-rule: evenodd;"/>
    <path d="M4498 4840 c-72 -22 -129 -98 -143 -193 -10 -66 1 -114 31 -134 24 -15 27 -15 52 4 53 39 85 126 107 286 7 51 4 53 -47 37z" style="fill: rgb(70, 23, 143); fill-rule: evenodd;"/>
    <path d="M5690 4837 c-71 -36 -114 -253 -64 -322 20 -27 77 -25 108 4 65 61 87 260 35 312 -22 22 -44 24 -79 6z" style="fill: rgb(70, 23, 143); fill-rule: evenodd;"/>
    <path d="M6304 4840 c-63 -25 -111 -188 -85 -287 27 -99 130 -71 169 45 34 102 22 225 -24 242 -29 12 -32 12 -60 0z" style="fill: rgb(70, 23, 143); fill-rule: evenodd;"/>
  </g>
</svg>